<svg width="22" height="24" viewBox="0 0 22 24" fill="none" xmlns="http://www.w3.org/2000/svg">
<path d="M11 2.66668C8.42267 2.66668 6.33333 4.75601 6.33333 7.33334C6.33333 9.91067 8.42267 12 11 12C13.5773 12 15.6667 9.91067 15.6667 7.33334C15.6667 4.75601 13.5773 2.66668 11 2.66668ZM4 7.33334C4 3.46735 7.13401 0.333344 11 0.333344C14.866 0.333344 18 3.46735 18 7.33334C18 11.1993 14.866 14.3333 11 14.3333C7.13401 14.3333 4 11.1993 4 7.33334ZM6.33333 19C4.40034 19 2.83333 20.567 2.83333 22.5C2.83333 23.1443 2.311 23.6667 1.66667 23.6667C1.02233 23.6667 0.5 23.1443 0.5 22.5C0.5 19.2783 3.11167 16.6667 6.33333 16.6667H15.6667C18.8883 16.6667 21.5 19.2784 21.5 22.5C21.5 23.1443 20.9777 23.6667 20.3333 23.6667C19.689 23.6667 19.1667 23.1443 19.1667 22.5C19.1667 20.567 17.5997 19 15.6667 19H6.33333Z" fill="#2F80ED"/>
</svg>
