<svg width="24" height="25" viewBox="0 0 24 25" fill="none" xmlns="http://www.w3.org/2000/svg">
<path d="M8 0C8.73638 0 9.33333 0.589099 9.33333 1.31579V2.63158H14.6667V1.31579C14.6667 0.589099 15.2636 0 16 0C16.7364 0 17.3333 0.589099 17.3333 1.31579V2.63158H21.3333C22.8061 2.63158 24 3.80978 24 5.26316V22.3684C24 23.8218 22.8061 25 21.3333 25H2.66667C1.19391 25 0 23.8218 0 22.3684V5.26316C0 3.80978 1.19391 2.63158 2.66667 2.63158H6.66667V1.31579C6.66667 0.589099 7.26362 0 8 0ZM6.66667 5.26316H2.66667V9.21053H21.3333V5.26316H17.3333V6.57895C17.3333 7.30564 16.7364 7.89474 16 7.89474C15.2636 7.89474 14.6667 7.30564 14.6667 6.57895V5.26316H9.33333V6.57895C9.33333 7.30564 8.73638 7.89474 8 7.89474C7.26362 7.89474 6.66667 7.30564 6.66667 6.57895V5.26316ZM21.3333 11.8421H2.66667V22.3684H21.3333V11.8421Z" fill="#4F4F4F"/>
</svg>
