<svg width="47.99999999999999" height="28.999999999999996" xmlns="http://www.w3.org/2000/svg" fill="#000000">

 <g>
  <title>Layer 1</title>
  <path stroke="null" id="svg_1" d="m44.809,0.00014c-0.54308,-0.00525 -1.09249,0.1323 -1.59388,0.44075l-10.01465,6.15687c-1.20719,-3.43008 -4.43728,-5.94845 -8.32009,-5.94845l-23.10247,0a1.77809,1.74952 0 0 0 -1.77791,1.74934l0,17.48319c0,4.81488 4.00648,8.75697 8.89999,8.75697l23.10247,0a1.77809,1.74952 0 0 0 1.77791,-1.74934l0,-5.59312l9.43475,5.80154c2.00558,1.23383 4.78856,-0.28294 4.78856,-2.61035l0,-21.43629c0,-1.74555 -1.56547,-3.03558 -3.19468,-3.0511zm-0.36115,3.80619l0,19.92611l-10.66749,-6.56004l0,-6.80603l10.66749,-6.56004zm-40.89203,0.34166l21.32455,0c2.972,0 5.34416,2.33404 5.34416,5.25828l0,8.73647l0,6.99738l-21.32455,0c-2.972,0 -5.34416,-2.33404 -5.34416,-5.25828l0,-15.73384z"/>
 </g>
</svg>
