<svg width="40" height="46" viewBox="0 0 40 46" fill="none" xmlns="http://www.w3.org/2000/svg">
<path d="M10.5 21.9544H9.5V23.9544H10.5V21.9544ZM29.5 23.9544H30.5V21.9544H29.5V23.9544ZM10.5 31.3839H9.5V33.3839H10.5V31.3839ZM29.5 33.3839H30.5V31.3839H29.5V33.3839ZM10.5 12.5453H9.5V14.5453H10.5V12.5453ZM29.5 14.5453H30.5V12.5453H29.5V14.5453ZM39 10.4152H40V9.99834L39.7039 9.70491L39 10.4152ZM29.5 1L30.2039 0.28973L29.9116 0H29.5V1ZM10.5 23.9544H29.5V21.9544H10.5V23.9544ZM10.5 33.3839H29.5V31.3839H10.5V33.3839ZM10.5 14.5453H29.5V12.5453H10.5V14.5453ZM35.8333 43.9375H4.16667V45.9375H35.8333V43.9375ZM2 41.7991V4.13839H0V41.7991H2ZM38 10.4152V41.7991H40V10.4152H38ZM4.16667 2H29.5V0H4.16667V2ZM28.7961 1.71027L38.2961 11.1254L39.7039 9.70491L30.2039 0.28973L28.7961 1.71027ZM4.16667 43.9375C2.96157 43.9375 2 42.9717 2 41.7991H0C0 44.0931 1.87395 45.9375 4.16667 45.9375V43.9375ZM35.8333 45.9375C38.126 45.9375 40 44.0931 40 41.7991H38C38 42.9717 37.0384 43.9375 35.8333 43.9375V45.9375ZM2 4.13839C2 2.96583 2.96158 2 4.16667 2V0C1.87395 0 0 1.84439 0 4.13839H2Z" fill="#4F4F4F"/>
</svg>
